<mxfile host="app.diagrams.net" agent="Mozilla/5.0 (Windows NT 10.0; Win64; x64) AppleWebKit/537.36 (KHTML, like Gecko) Chrome/134.0.0.0 Safari/537.36 Edg/134.0.0.0/8mqY1SuL-72" version="26.1.1">
  <diagram name="Page-1" id="GwyPaFRpLCBM7G3RHXr4">
    <mxGraphModel dx="1179" dy="625" grid="1" gridSize="10" guides="1" tooltips="1" connect="1" arrows="1" fold="1" page="1" pageScale="1" pageWidth="1169" pageHeight="827" math="0" shadow="0">
      <root>
        <mxCell id="0" />
        <mxCell id="1" parent="0" />
        <mxCell id="cEqm19bf2hDtiAdt5zWf-25" value="" style="rounded=0;whiteSpace=wrap;html=1;strokeColor=#FFFFFF;" vertex="1" parent="1">
          <mxGeometry x="270" y="70" width="420" height="550" as="geometry" />
        </mxCell>
        <mxCell id="cEqm19bf2hDtiAdt5zWf-14" style="edgeStyle=orthogonalEdgeStyle;rounded=0;orthogonalLoop=1;jettySize=auto;html=1;exitX=0.5;exitY=1;exitDx=0;exitDy=0;entryX=0.5;entryY=0;entryDx=0;entryDy=0;strokeWidth=2;" edge="1" parent="1" source="cEqm19bf2hDtiAdt5zWf-1" target="cEqm19bf2hDtiAdt5zWf-2">
          <mxGeometry relative="1" as="geometry" />
        </mxCell>
        <mxCell id="cEqm19bf2hDtiAdt5zWf-1" value="Chest X-Ray Input Image" style="rounded=1;whiteSpace=wrap;html=1;fontStyle=1;fontSize=12;strokeWidth=2;" vertex="1" parent="1">
          <mxGeometry x="400" y="80" width="160" height="40" as="geometry" />
        </mxCell>
        <mxCell id="cEqm19bf2hDtiAdt5zWf-2" value="Preprocessing" style="rounded=1;whiteSpace=wrap;html=1;verticalAlign=top;fontStyle=1;fontSize=12;strokeWidth=2;" vertex="1" parent="1">
          <mxGeometry x="400" y="150" width="160" height="80" as="geometry" />
        </mxCell>
        <mxCell id="cEqm19bf2hDtiAdt5zWf-15" style="edgeStyle=orthogonalEdgeStyle;rounded=0;orthogonalLoop=1;jettySize=auto;html=1;exitX=0.5;exitY=1;exitDx=0;exitDy=0;entryX=0.5;entryY=0;entryDx=0;entryDy=0;strokeWidth=2;" edge="1" parent="1" source="cEqm19bf2hDtiAdt5zWf-5" target="cEqm19bf2hDtiAdt5zWf-6">
          <mxGeometry relative="1" as="geometry" />
        </mxCell>
        <mxCell id="cEqm19bf2hDtiAdt5zWf-5" value="- Resize (299 x 299)&lt;div&gt;- Channel Conversion&lt;/div&gt;&lt;div&gt;- Normalization&lt;/div&gt;" style="text;html=1;whiteSpace=wrap;overflow=hidden;rounded=0;verticalAlign=middle;align=center;fontStyle=0;fontSize=12;strokeWidth=2;" vertex="1" parent="1">
          <mxGeometry x="415" y="170" width="130" height="60" as="geometry" />
        </mxCell>
        <mxCell id="cEqm19bf2hDtiAdt5zWf-6" value="InceptionV3" style="rounded=1;whiteSpace=wrap;html=1;verticalAlign=top;fontStyle=1;fontSize=12;strokeWidth=2;" vertex="1" parent="1">
          <mxGeometry x="400" y="260" width="160" height="80" as="geometry" />
        </mxCell>
        <mxCell id="cEqm19bf2hDtiAdt5zWf-16" style="edgeStyle=orthogonalEdgeStyle;rounded=0;orthogonalLoop=1;jettySize=auto;html=1;exitX=0.5;exitY=1;exitDx=0;exitDy=0;entryX=0.5;entryY=0;entryDx=0;entryDy=0;strokeWidth=2;" edge="1" parent="1" source="cEqm19bf2hDtiAdt5zWf-7" target="cEqm19bf2hDtiAdt5zWf-8">
          <mxGeometry relative="1" as="geometry" />
        </mxCell>
        <mxCell id="cEqm19bf2hDtiAdt5zWf-7" value="Multi-scale feature Extraction (11 Inception Modules)" style="text;html=1;whiteSpace=wrap;overflow=hidden;rounded=0;verticalAlign=middle;align=center;fontStyle=0;fontSize=12;strokeWidth=2;" vertex="1" parent="1">
          <mxGeometry x="415" y="280" width="130" height="60" as="geometry" />
        </mxCell>
        <mxCell id="cEqm19bf2hDtiAdt5zWf-19" style="edgeStyle=orthogonalEdgeStyle;rounded=0;orthogonalLoop=1;jettySize=auto;html=1;exitX=0;exitY=0.5;exitDx=0;exitDy=0;entryX=0.5;entryY=0;entryDx=0;entryDy=0;strokeWidth=2;" edge="1" parent="1" source="cEqm19bf2hDtiAdt5zWf-8" target="cEqm19bf2hDtiAdt5zWf-9">
          <mxGeometry relative="1" as="geometry" />
        </mxCell>
        <mxCell id="cEqm19bf2hDtiAdt5zWf-20" style="edgeStyle=orthogonalEdgeStyle;rounded=0;orthogonalLoop=1;jettySize=auto;html=1;exitX=1;exitY=0.5;exitDx=0;exitDy=0;entryX=0.5;entryY=0;entryDx=0;entryDy=0;strokeWidth=2;" edge="1" parent="1" source="cEqm19bf2hDtiAdt5zWf-8" target="cEqm19bf2hDtiAdt5zWf-10">
          <mxGeometry relative="1" as="geometry" />
        </mxCell>
        <mxCell id="cEqm19bf2hDtiAdt5zWf-8" value="Feature Maps" style="rounded=1;whiteSpace=wrap;html=1;fontStyle=1;fontSize=12;strokeWidth=2;" vertex="1" parent="1">
          <mxGeometry x="400" y="370" width="160" height="40" as="geometry" />
        </mxCell>
        <mxCell id="cEqm19bf2hDtiAdt5zWf-21" style="edgeStyle=orthogonalEdgeStyle;rounded=0;orthogonalLoop=1;jettySize=auto;html=1;exitX=0.5;exitY=1;exitDx=0;exitDy=0;entryX=0.5;entryY=0;entryDx=0;entryDy=0;strokeWidth=2;" edge="1" parent="1" source="cEqm19bf2hDtiAdt5zWf-9" target="cEqm19bf2hDtiAdt5zWf-11">
          <mxGeometry relative="1" as="geometry" />
        </mxCell>
        <mxCell id="cEqm19bf2hDtiAdt5zWf-9" value="Global Average Pooling" style="rounded=1;whiteSpace=wrap;html=1;fontStyle=1;fontSize=12;strokeWidth=2;" vertex="1" parent="1">
          <mxGeometry x="280" y="430" width="160" height="40" as="geometry" />
        </mxCell>
        <mxCell id="cEqm19bf2hDtiAdt5zWf-22" style="edgeStyle=orthogonalEdgeStyle;rounded=0;orthogonalLoop=1;jettySize=auto;html=1;exitX=0.5;exitY=1;exitDx=0;exitDy=0;entryX=0.5;entryY=0;entryDx=0;entryDy=0;strokeWidth=2;" edge="1" parent="1" source="cEqm19bf2hDtiAdt5zWf-10" target="cEqm19bf2hDtiAdt5zWf-12">
          <mxGeometry relative="1" as="geometry" />
        </mxCell>
        <mxCell id="cEqm19bf2hDtiAdt5zWf-10" value="GradCAM++ Computation" style="rounded=1;whiteSpace=wrap;html=1;fontStyle=1;fontSize=12;strokeWidth=2;" vertex="1" parent="1">
          <mxGeometry x="520" y="430" width="160" height="40" as="geometry" />
        </mxCell>
        <mxCell id="cEqm19bf2hDtiAdt5zWf-24" style="edgeStyle=orthogonalEdgeStyle;rounded=0;orthogonalLoop=1;jettySize=auto;html=1;exitX=0.5;exitY=1;exitDx=0;exitDy=0;entryX=0;entryY=0.5;entryDx=0;entryDy=0;strokeWidth=2;" edge="1" parent="1" source="cEqm19bf2hDtiAdt5zWf-11" target="cEqm19bf2hDtiAdt5zWf-13">
          <mxGeometry relative="1" as="geometry" />
        </mxCell>
        <mxCell id="cEqm19bf2hDtiAdt5zWf-11" value="Classification" style="rounded=1;whiteSpace=wrap;html=1;fontStyle=1;fontSize=12;strokeWidth=2;" vertex="1" parent="1">
          <mxGeometry x="280" y="500" width="160" height="40" as="geometry" />
        </mxCell>
        <mxCell id="cEqm19bf2hDtiAdt5zWf-23" style="edgeStyle=orthogonalEdgeStyle;rounded=0;orthogonalLoop=1;jettySize=auto;html=1;exitX=0.5;exitY=1;exitDx=0;exitDy=0;entryX=1;entryY=0.5;entryDx=0;entryDy=0;strokeWidth=2;" edge="1" parent="1" source="cEqm19bf2hDtiAdt5zWf-12" target="cEqm19bf2hDtiAdt5zWf-13">
          <mxGeometry relative="1" as="geometry" />
        </mxCell>
        <mxCell id="cEqm19bf2hDtiAdt5zWf-12" value="Heatmap" style="rounded=1;whiteSpace=wrap;html=1;fontStyle=1;fontSize=12;strokeWidth=2;" vertex="1" parent="1">
          <mxGeometry x="520" y="500" width="160" height="40" as="geometry" />
        </mxCell>
        <mxCell id="cEqm19bf2hDtiAdt5zWf-13" value="Output" style="rounded=1;whiteSpace=wrap;html=1;fontStyle=1;fontSize=12;strokeWidth=2;" vertex="1" parent="1">
          <mxGeometry x="400" y="570" width="160" height="40" as="geometry" />
        </mxCell>
      </root>
    </mxGraphModel>
  </diagram>
</mxfile>
